<svg viewBox="0 0 32 32" xmlns="http://www.w3.org/2000/svg"><g fill="none" fill-rule="evenodd"><path d="M27.017 21.912c0 1.638-.422 3.109-1.265 4.414-.844 1.305-2.078 2.327-3.703 3.066-1.626.739-3.553 1.108-5.78 1.108-2.673 0-4.877-.504-6.613-1.514a8.813 8.813 0 0 1-3.002-2.91C5.885 24.865 5.5 23.686 5.5 22.54c0-.665.231-1.234.692-1.708.462-.475 1.05-.712 1.764-.712.58 0 1.068.185 1.47.555.4.369.741.917 1.024 1.643.344.862.717 1.583 1.117 2.16.4.58.964 1.057 1.69 1.433.727.375 1.681.563 2.863.563 1.625 0 2.946-.38 3.962-1.136 1.015-.757 1.523-1.702 1.523-2.835 0-.9-.274-1.628-.822-2.19-.547-.56-1.255-.987-2.124-1.282-.868-.296-2.028-.61-3.48-.942-1.947-.456-3.575-.988-4.886-1.598-1.312-.61-2.352-1.44-3.122-2.493-.769-1.053-1.154-2.361-1.154-3.925 0-1.49.406-2.814 1.22-3.971.812-1.157 1.988-2.047 3.527-2.67 1.54-.621 3.35-.932 5.43-.932 1.662 0 3.1.207 4.312.619 1.213.413 2.22.96 3.02 1.644.801.683 1.385 1.4 1.755 2.152.37.75.554 1.483.554 2.198 0 .652-.23 1.24-.693 1.763a2.205 2.205 0 0 1-1.727.785c-.628 0-1.105-.157-1.43-.471-.327-.314-.68-.828-1.063-1.542-.493-1.022-1.084-1.82-1.773-2.392-.69-.572-1.798-.86-3.325-.86-1.416 0-2.558.312-3.426.934-.868.622-1.302 1.37-1.302 2.244 0 .542.148 1.01.443 1.404.296.394.702.733 1.22 1.016a8.263 8.263 0 0 0 1.57.665c.53.16 1.403.394 2.622.702 1.527.357 2.91.75 4.146 1.182 1.238.43 2.291.954 3.16 1.57a6.446 6.446 0 0 1 2.03 2.336c.487.942.73 2.096.73 3.463" fill="#0fab29" class="fill-f42f42"></path><path d="M27.017 21.912c0 1.638-.422 3.109-1.265 4.414-.844 1.305-2.078 2.327-3.703 3.066-1.626.739-3.553 1.108-5.78 1.108-2.673 0-4.877-.504-6.613-1.514a8.813 8.813 0 0 1-3.002-2.91C5.885 24.865 5.5 23.686 5.5 22.54c0-.665.231-1.234.692-1.708.462-.475 1.05-.712 1.764-.712.58 0 1.068.185 1.47.555.4.369.741.917 1.024 1.643.344.862.717 1.583 1.117 2.16.4.58.964 1.057 1.69 1.433.727.375 1.681.563 2.863.563 1.625 0 2.946-.38 3.962-1.136 1.015-.757 1.523-1.702 1.523-2.835 0-.9-.274-1.628-.822-2.19-.547-.56-1.255-.987-2.124-1.282-.868-.296-2.028-.61-3.48-.942-1.947-.456-3.575-.988-4.886-1.598-1.312-.61-2.352-1.44-3.122-2.493-.769-1.053-1.154-2.361-1.154-3.925 0-1.49.406-2.814 1.22-3.971.812-1.157 1.988-2.047 3.527-2.67 1.54-.621 3.35-.932 5.43-.932 1.662 0 3.1.207 4.312.619 1.213.413 2.22.96 3.02 1.644.801.683 1.385 1.4 1.755 2.152.37.75.554 1.483.554 2.198 0 .652-.23 1.24-.693 1.763a2.205 2.205 0 0 1-1.727.785c-.628 0-1.105-.157-1.43-.471-.327-.314-.68-.828-1.063-1.542-.493-1.022-1.084-1.82-1.773-2.392-.69-.572-1.798-.86-3.325-.86-1.416 0-2.558.312-3.426.934-.868.622-1.302 1.37-1.302 2.244 0 .542.148 1.01.443 1.404.296.394.702.733 1.22 1.016a8.263 8.263 0 0 0 1.57.665c.53.16 1.403.394 2.622.702 1.527.357 2.91.75 4.146 1.182 1.238.43 2.291.954 3.16 1.57a6.446 6.446 0 0 1 2.03 2.336c.487.942.73 2.096.73 3.463Z" stroke="#330910" class="stroke-330910"></path><path d="M7.517 10.073c0-1.185.31-2.202.946-3.108.65-.926 1.585-1.625 2.862-2.141" stroke="#ffffff" stroke-dasharray="1,2,6,2,3" stroke-linecap="round" stroke-linejoin="round" class="stroke-ffffff"></path><path d="M26.49 21.32c-.066 1.37-.443 2.628-1.158 3.734-.786 1.217-1.96 2.187-3.49 2.883-1.554.706-3.429 1.063-5.575 1.063-2.57 0-4.71-.486-6.359-1.447a8.333 8.333 0 0 1-2.832-2.744c-.587-.925-.922-1.83-1.028-2.704A2.04 2.04 0 0 0 6 22.54c0 1.044.362 2.144 1.076 3.27a8.333 8.333 0 0 0 2.832 2.744c1.65.961 3.79 1.447 6.36 1.447 2.145 0 4.02-.357 5.573-1.063 1.531-.696 2.705-1.666 3.491-2.883.787-1.217 1.185-2.61 1.185-4.143 0-.205-.015-.396-.027-.59" fill="#332E09" opacity=".204" class="fill-332e09"></path></g></svg>